<svg width="32" height="32" viewBox="0 0 32 32" fill="none" xmlns="http://www.w3.org/2000/svg">
<path d="M3.979 20.059L11.252 6.19999L18.407 2.36499L20.535 3.43899L13.423 7.45699L20.771 29.545L18.407 28.17L12.907 15.493L5.687 20.972L3.979 20.059Z" fill="white"/>
<path d="M25.24 16.47C26.7234 16.47 27.926 15.3494 27.926 13.967C27.926 12.5846 26.7234 11.464 25.24 11.464C23.7565 11.464 22.554 12.5846 22.554 13.967C22.554 15.3494 23.7565 16.47 25.24 16.47Z" fill="white"/>
<path d="M27.2 12.85C26.9584 12.5071 26.6322 12.2325 26.2532 12.0528C25.8741 11.8732 25.455 11.7947 25.0367 11.8249C24.6183 11.8551 24.2148 11.9929 23.8655 12.2251C23.5161 12.4573 23.2328 12.776 23.043 13.15C22.8562 13.5526 22.7963 14.0024 22.8711 14.4398C22.946 14.8772 23.152 15.2815 23.462 15.599C24.3114 15.6668 25.1569 15.4262 25.8434 14.9213C26.5299 14.4164 27.0115 13.6811 27.2 12.85ZM19.976 3.40002L18.429 2.55102L11.693 6.30002L12.23 6.59002L13.251 7.12702L15.1 6.10002L19.977 3.38202L19.976 3.40002ZM20.599 3.14202C20.6391 3.15181 20.676 3.17176 20.7061 3.19997C20.7362 3.22817 20.7586 3.26366 20.771 3.30302L23.027 9.96002C23.0501 10.0128 23.0518 10.0725 23.0319 10.1266C23.0119 10.1806 22.9718 10.2249 22.92 10.25C22.059 10.7225 21.3827 11.4718 21.0005 12.3765C20.6183 13.2811 20.5526 14.2883 20.814 15.235C21.126 16.2653 21.7889 17.1538 22.6876 17.7463C23.5863 18.3389 24.6641 18.5981 25.734 18.479C25.7927 18.4753 25.8511 18.4898 25.9013 18.5206C25.9514 18.5514 25.9908 18.597 26.014 18.651L28.345 25.484C28.3601 25.5391 28.3578 25.5974 28.3385 25.6511C28.3191 25.7048 28.2837 25.7512 28.237 25.784L21.072 29.973C21.0379 29.9878 21.0011 29.9953 20.964 29.995C20.8979 30.0074 20.8295 29.996 20.771 29.963L18.257 28.383C18.2111 28.3592 18.1738 28.3218 18.15 28.276L13.24 16.986L5.76297 21.24C5.71833 21.2628 5.66926 21.2756 5.61918 21.2775C5.5691 21.2794 5.5192 21.2704 5.47297 21.251L3.77297 20.284C3.71738 20.2542 3.67532 20.2042 3.65542 20.1443C3.63553 20.0844 3.6393 20.0192 3.66597 19.962L10.93 6.17802C10.9571 6.13089 10.9984 6.09347 11.048 6.07102L18.289 2.03202C18.3287 2.01084 18.373 1.99976 18.418 1.99976C18.463 1.99976 18.5073 2.01084 18.547 2.03202L20.599 3.14202ZM11.618 6.84402L11.263 6.66202L4.26297 19.994L5.54097 20.714L11.579 12.814C11.6085 12.7776 11.6464 12.7488 11.6894 12.73C11.7323 12.7113 11.7792 12.703 11.826 12.706C11.8719 12.7143 11.9152 12.7332 11.9525 12.7611C11.9898 12.7891 12.0201 12.8253 12.041 12.867L18.616 28.015L20.373 29.1L13.315 8.46702L13.015 7.60702L11.608 6.83402L11.618 6.84402ZM22.447 14.794C22.2861 14.1994 22.3313 13.5679 22.5752 13.0023C22.819 12.4367 23.2472 11.9703 23.79 11.679C24.3405 11.3711 24.9748 11.2468 25.6009 11.3241C26.2269 11.4014 26.8119 11.6764 27.271 12.109C27.7907 12.6084 28.0908 13.2938 28.1055 14.0144C28.1201 14.735 27.848 15.4319 27.349 15.952L27.271 16.03C26.911 16.3747 26.469 16.622 25.9869 16.7484C25.5047 16.8748 24.9983 16.8762 24.5155 16.7525C24.0327 16.6288 23.5893 16.384 23.2274 16.0414C22.8655 15.6987 22.5969 15.2694 22.447 14.794Z" fill="black"/>
</svg>
