<svg width="23" height="28" viewBox="0 0 23 28" fill="none" xmlns="http://www.w3.org/2000/svg">
<path d="M8.75 25C10.82 25 12.5 23.3574 12.5 21.3334V17.6667H8.75C6.68 17.6667 5 19.3094 5 21.3334C5 23.3574 6.68 25 8.75 25Z" fill="#0ACF83"/>
<path d="M5 14C5 11.976 6.68 10.3333 8.75 10.3333H12.5V17.6666H8.75C6.68 17.6666 5 16.024 5 14Z" fill="#A259FF"/>
<path d="M5 6.66667C5 4.64267 6.68 3 8.75 3H12.5V10.3333H8.75C6.68 10.3333 5 8.69067 5 6.66667Z" fill="#F24E1E"/>
<path d="M12.5 3H16.25C18.32 3 20 4.64267 20 6.66667C20 8.69067 18.32 10.3333 16.25 10.3333H12.5V3Z" fill="#FF7262"/>
<path d="M20 14C20 16.024 18.32 17.6666 16.25 17.6666C14.18 17.6666 12.5 16.024 12.5 14C12.5 11.976 14.18 10.3333 16.25 10.3333C18.32 10.3333 20 11.976 20 14Z" fill="#1ABCFE"/>
</svg>
