<svg width="24" height="24" viewBox="0 0 24 24" fill="none" xmlns="http://www.w3.org/2000/svg">
<path d="M2.60007 10.59L8.38007 4.80001L10.0701 6.50001C9.83007 7.35001 10.2201 8.28001 11.0001 8.73001V14.27C10.4001 14.61 10.0001 15.26 10.0001 16C10.0001 16.5304 10.2108 17.0391 10.5859 17.4142C10.9609 17.7893 11.4696 18 12.0001 18C12.5305 18 13.0392 17.7893 13.4143 17.4142C13.7894 17.0391 14.0001 16.5304 14.0001 16C14.0001 15.26 13.6001 14.61 13.0001 14.27V9.41001L15.0701 11.5C15.0001 11.65 15.0001 11.82 15.0001 12C15.0001 12.5304 15.2108 13.0391 15.5859 13.4142C15.9609 13.7893 16.4696 14 17.0001 14C17.5305 14 18.0392 13.7893 18.4143 13.4142C18.7894 13.0391 19.0001 12.5304 19.0001 12C19.0001 11.4696 18.7894 10.9609 18.4143 10.5858C18.0392 10.2107 17.5305 10 17.0001 10C16.8201 10 16.6501 10 16.5001 10.07L13.9301 7.50001C14.0542 7.03684 14.0061 6.54436 13.7946 6.114C13.5831 5.68364 13.2226 5.34466 12.7801 5.16001C12.3501 5.00001 11.9001 4.96001 11.5001 5.07001L9.80007 3.38001L10.5901 2.60001C11.3701 1.81001 12.6301 1.81001 13.4101 2.60001L21.4001 10.59C22.1901 11.37 22.1901 12.63 21.4001 13.41L13.4101 21.4C12.6301 22.19 11.3701 22.19 10.5901 21.4L2.60007 13.41C1.81007 12.63 1.81007 11.37 2.60007 10.59Z" fill="#F05033"/>
</svg>
