<svg width="34" height="30" viewBox="0 0 34 30" fill="none" xmlns="http://www.w3.org/2000/svg">
<path d="M27.9548 9.7236C27.5929 9.60049 27.228 9.48643 26.8604 9.38154C26.9222 9.13129 26.979 8.88406 27.0295 8.64118C27.858 4.65276 27.3163 1.43961 25.4664 0.381683C23.6927 -0.632512 20.7919 0.425017 17.8624 2.95352C17.5736 3.20317 17.2913 3.46 17.0157 3.72379C16.8311 3.54838 16.6434 3.37637 16.4524 3.20786C13.3821 0.504309 10.3045 -0.635146 8.45657 0.425807C6.68445 1.44316 6.15971 4.46375 6.90559 8.24367C6.97979 8.61803 7.06358 8.99046 7.15687 9.3606C6.72124 9.48336 6.30089 9.61402 5.8986 9.75311C2.29885 10.9978 0 12.9483 0 14.9716C0 17.0612 2.46792 19.1572 6.21722 20.4281C6.52118 20.5307 6.82767 20.6258 7.13641 20.7133C7.03614 21.1119 6.94712 21.5133 6.86946 21.9169C6.15838 25.6312 6.71367 28.5804 8.48101 29.5913C10.3064 30.6353 13.3701 29.5623 16.3532 26.9761C16.5951 26.7659 16.8317 26.5497 17.0627 26.3277C17.3612 26.6133 17.6677 26.8906 17.9817 27.1593C20.8715 29.6253 23.7254 30.621 25.491 29.6074C27.3146 28.5604 27.9074 25.3921 27.1378 21.5375C27.0772 21.2355 27.0092 20.9351 26.934 20.6363C27.1491 20.5731 27.3603 20.5081 27.5662 20.4404C31.4639 19.1597 34 17.0892 34 14.9716C34 12.941 31.6269 10.9773 27.9548 9.7236ZM27.1094 19.0732C26.9235 19.1342 26.7328 19.193 26.5383 19.2503C26.108 17.8993 25.5274 16.4629 24.8167 14.9786C25.4948 13.5297 26.0532 12.1116 26.4714 10.7694C26.8192 10.8693 27.1567 10.9745 27.4821 11.0855C30.6284 12.1598 32.5476 13.7479 32.5476 14.9716C32.5476 16.275 30.4749 17.9672 27.1094 19.0732ZM25.713 21.8173C26.0533 23.5217 26.1018 25.0627 25.8764 26.2675C25.674 27.3501 25.2668 28.0717 24.7632 28.3608C23.6918 28.9759 21.4003 28.1764 18.9291 26.0674C18.637 25.8176 18.3519 25.5598 18.0742 25.2943C19.0323 24.2552 19.9897 23.0472 20.9242 21.7056C22.5679 21.561 24.1207 21.3244 25.529 21.0016C25.5968 21.272 25.6582 21.544 25.713 21.8173ZM11.5913 28.2545C10.5445 28.6211 9.71072 28.6316 9.2067 28.3434C8.13423 27.73 7.68838 25.362 8.29653 22.1856C8.36882 21.8102 8.4516 21.4369 8.54476 21.0661C9.93743 21.3717 11.479 21.5914 13.1265 21.7239C14.0674 23.0367 15.0524 24.2433 16.0452 25.2999C15.8342 25.5024 15.6183 25.6997 15.3975 25.8916C14.0783 27.0351 12.7564 27.8465 11.5913 28.2545ZM6.68711 19.0651C5.02921 18.5031 3.66005 17.7728 2.72159 16.9758C1.87823 16.2596 1.45257 15.5485 1.45257 14.9716C1.45257 13.7438 3.29827 12.1777 6.37673 11.1133C6.75033 10.9842 7.14133 10.8624 7.54707 10.7481C7.9726 12.1205 8.53068 13.5555 9.20417 15.0066C8.52191 16.4792 7.95587 17.9371 7.52622 19.3258C7.2444 19.2457 6.96462 19.1588 6.68711 19.0651ZM8.33106 7.96694C7.6921 4.7285 8.11644 2.2856 9.18438 1.67248C10.3218 1.01944 12.837 1.95052 15.4881 4.28502C15.6609 4.43759 15.831 4.59326 15.9982 4.75194C15.0103 5.80394 14.0343 7.00161 13.1018 8.30663C11.5028 8.45362 9.97209 8.68965 8.56481 9.0059C8.47811 8.66162 8.40017 8.31511 8.33106 7.96694ZM22.9971 11.5585C22.6648 10.9891 22.32 10.4269 21.9632 9.87218C23.048 10.0082 24.0874 10.1888 25.0634 10.4096C24.7705 11.341 24.4052 12.3148 23.9753 13.3132C23.6611 12.7219 23.3349 12.1369 22.9971 11.5585ZM17.0163 5.78142C17.6862 6.50123 18.3572 7.30482 19.0172 8.17676C17.6784 8.11406 16.3374 8.11379 14.9986 8.17597C15.6593 7.31206 16.3359 6.50953 17.0163 5.78142ZM10.9971 11.5684C10.6636 12.1421 10.3435 12.7235 10.0373 13.312C9.61443 12.3172 9.25252 11.3389 8.95701 10.3943C9.92707 10.1791 10.9615 10.0031 12.0395 9.86954C11.6787 10.4276 11.3311 10.9941 10.9971 11.5684ZM12.0704 20.1761C10.9568 20.0529 9.90675 19.886 8.93695 19.6765C9.23711 18.715 9.60699 17.716 10.039 16.6998C10.3465 17.2888 10.6678 17.8705 11.0029 18.4445C11.3474 19.0346 11.7041 19.6125 12.0704 20.1761ZM17.0564 24.2632C16.3679 23.5267 15.6813 22.7118 15.0107 21.8353C15.6618 21.8606 16.3254 21.8735 17 21.8735C17.693 21.8735 18.3781 21.8581 19.0524 21.8284C18.3903 22.7206 17.7218 23.5367 17.0564 24.2632ZM23.989 16.6479C24.4435 17.6753 24.8265 18.6691 25.1306 19.6141C24.1449 19.8372 23.0806 20.0169 21.9591 20.1503C22.3184 19.5853 22.6664 19.0133 23.0029 18.4346C23.3449 17.8464 23.6737 17.2507 23.989 16.6479ZM21.7447 17.7149C21.2297 18.6022 20.6857 19.4726 20.1137 20.3248C19.0774 20.3976 18.0389 20.4338 17 20.4332C15.9419 20.4332 14.9127 20.4006 13.9217 20.3368C13.3347 19.4866 12.7803 18.6146 12.2598 17.7228C11.7417 16.8358 11.2579 15.9295 10.8092 15.006C11.2568 14.0823 11.7392 13.1756 12.2555 12.2878C12.7716 11.3999 13.3214 10.5317 13.904 9.68514C14.9151 9.60928 15.952 9.56976 16.9999 9.56976C18.0525 9.56976 19.0909 9.60967 20.1017 9.68607C20.6784 10.5314 21.2248 11.3966 21.7399 12.2802C22.258 13.166 22.7468 14.0682 23.2057 14.9856C22.7515 15.9123 22.2642 16.8226 21.7447 17.7149ZM24.741 1.62954C25.8794 2.28073 26.3222 4.90671 25.6069 8.35036C25.5612 8.57006 25.51 8.79384 25.4542 9.02078C24.0434 8.69782 22.5117 8.45771 20.908 8.30847C19.9738 6.9891 19.0057 5.78958 18.0339 4.75115C18.2886 4.50768 18.5494 4.27052 18.8159 4.0399C21.3261 1.8736 23.6721 1.01826 24.741 1.62954ZM17 11.9606C18.6768 11.9606 20.0361 13.3087 20.0361 14.9716C20.0361 16.6345 18.6768 17.9826 17 17.9826C15.3232 17.9826 13.9639 16.6345 13.9639 14.9716C13.9639 13.3087 15.3232 11.9606 17 11.9606Z" fill="#00D8FF"/>
</svg>
