<svg width="32" height="32" viewBox="0 0 32 32" fill="none" xmlns="http://www.w3.org/2000/svg">
<path d="M23.1919 3.242H5.62293C5.05559 3.24359 4.51194 3.46966 4.11077 3.87084C3.70959 4.27201 3.48352 4.81566 3.48193 5.383V24.759C3.48352 25.3263 3.70959 25.87 4.11077 26.2712C4.51194 26.6723 5.05559 26.8984 5.62293 26.9H17.1949C17.0629 21.142 19.0299 9.968 23.1919 3.242Z" fill="#0F80CC"/>
<path d="M22.5539 3.867H5.62293C5.22103 3.86753 4.83573 4.02742 4.55154 4.31161C4.26735 4.59581 4.10746 4.9811 4.10693 5.383V23.345C8.45057 21.7068 13.0357 20.7998 17.6759 20.661C18.9032 14.9548 20.5333 9.34276 22.5539 3.867Z" fill="url(#paint0_linear_154_463)"/>
<path d="M27.29 2.60798C26.09 1.53498 24.63 1.96598 23.19 3.24198C22.977 3.43198 22.764 3.64198 22.552 3.86698C19.8431 7.07075 17.97 10.8957 17.1 15C17.3686 15.5859 17.5809 16.1959 17.734 16.822C17.77 16.962 17.803 17.094 17.834 17.206C17.896 17.471 17.934 17.643 17.934 17.643C17.934 17.643 17.912 17.56 17.821 17.297L17.762 17.127C17.7501 17.0953 17.7375 17.064 17.724 17.033C17.564 16.66 17.124 15.873 16.924 15.533C16.757 16.026 16.609 16.487 16.486 16.904C16.9012 17.797 17.2061 18.7373 17.394 19.704C17.394 19.704 17.364 19.589 17.223 19.189C16.9521 18.6048 16.6517 18.0347 16.323 17.481C16.1105 18.0295 16.0204 18.6179 16.059 19.205C16.2793 19.6441 16.4448 20.1086 16.552 20.588C16.886 21.871 17.118 23.434 17.118 23.434L17.138 23.697C17.0941 24.7656 17.1158 25.836 17.203 26.902C17.2526 27.9574 17.4492 29.0008 17.787 30.002L17.967 29.902C17.548 28.3973 17.3864 26.8326 17.489 25.274C17.6773 21.9697 18.3297 18.7084 19.427 15.586C21.437 10.278 24.227 6.01798 26.777 3.98598C24.451 6.08598 21.303 12.886 20.36 15.404C19.367 17.9966 18.6126 20.6743 18.106 23.404C18.7089 21.8806 19.8892 20.6571 21.39 20C21.39 20 22.623 18.479 24.064 16.307C23.1331 16.5011 22.2134 16.7458 21.309 17.04C20.609 17.334 20.42 17.434 20.42 17.434C21.7563 16.6293 23.168 15.9571 24.635 15.427C27.311 11.212 30.227 5.22698 27.291 2.60298" fill="#003B57"/>
<defs>
<linearGradient id="paint0_linear_154_463" x1="13.309" y1="4.30646" x2="13.309" y2="22.305" gradientUnits="userSpaceOnUse">
<stop stop-color="#97D9F6"/>
<stop offset="0.92" stop-color="#0F80CC"/>
<stop offset="1" stop-color="#0F80CC"/>
</linearGradient>
</defs>
</svg>
