<svg width="32" height="32" viewBox="0 0 32 32" fill="none" xmlns="http://www.w3.org/2000/svg">
<path d="M20.735 5.44201L20.868 2.26901L23.588 2.10101L23.71 5.33101C23.712 5.38277 23.6953 5.43352 23.663 5.47401C23.6455 5.49597 23.6237 5.51419 23.599 5.52758C23.5743 5.54097 23.5471 5.54926 23.5191 5.55196C23.4912 5.55467 23.4629 5.55173 23.4361 5.54332C23.4093 5.53491 23.3844 5.52121 23.363 5.50301L22.313 4.68301L21.07 5.61701C21.0478 5.63434 21.0223 5.64707 20.9951 5.65445C20.9679 5.66183 20.9395 5.66371 20.9116 5.65998C20.8837 5.65626 20.8568 5.647 20.8324 5.63276C20.8081 5.61851 20.7869 5.59956 20.77 5.57701C20.743 5.53745 20.7306 5.48971 20.735 5.44201Z" fill="white"/>
<path d="M20.8681 2.26801L20.7351 5.44201C20.733 5.49068 20.7483 5.53851 20.7781 5.57701C20.795 5.59956 20.8162 5.61851 20.8405 5.63275C20.8649 5.647 20.8918 5.65625 20.9197 5.65998C20.9476 5.6637 20.976 5.66182 21.0032 5.65444C21.0304 5.64706 21.0559 5.63434 21.0781 5.61701L22.3211 4.68301L23.3711 5.50301C23.3925 5.5212 23.4174 5.53491 23.4442 5.54332C23.471 5.55172 23.4993 5.55466 23.5272 5.55196C23.5552 5.54926 23.5824 5.54096 23.6071 5.52757C23.6318 5.51418 23.6536 5.49597 23.6711 5.47401C23.7034 5.43352 23.7201 5.38277 23.7181 5.33101L23.5881 2.10001L25.1541 2.00001C25.3398 1.98766 25.526 2.01205 25.7023 2.07178C25.8785 2.13152 26.0412 2.22543 26.1811 2.34813C26.321 2.47083 26.4353 2.61992 26.5175 2.78686C26.5997 2.9538 26.6481 3.13532 26.6601 3.32101V28.592C26.6585 28.9662 26.5087 29.3244 26.2435 29.5883C25.9783 29.8522 25.6192 30.0003 25.2451 30H25.1791L6.2311 29.156C5.87621 29.1415 5.5398 28.9939 5.28874 28.7427C5.03768 28.4914 4.89037 28.1549 4.8761 27.8L4.0001 4.69001C3.98747 4.32143 4.11955 3.96254 4.36809 3.69008C4.61664 3.41762 4.96191 3.25321 5.3301 3.23201L20.8671 2.26901L20.8681 2.26801Z" fill="#FF4785"/>
<path d="M17.253 12.554C17.253 13.101 20.973 12.839 21.473 12.454C21.473 8.72398 19.455 6.76398 15.759 6.76398C12.063 6.76398 9.99301 8.75398 9.99301 11.74C9.99301 16.94 17.07 17.04 17.07 19.876C17.0933 20.0472 17.0769 20.2214 17.0221 20.3853C16.9673 20.5492 16.8756 20.6982 16.754 20.821C16.6324 20.9437 16.4842 21.0369 16.3209 21.0932C16.1575 21.1496 15.9834 21.1676 15.812 21.146C14.685 21.146 14.239 20.574 14.292 18.634C14.292 18.213 9.99201 18.081 9.86201 18.634C9.52801 23.334 12.483 24.694 15.862 24.694C19.138 24.694 21.707 22.961 21.707 19.826C21.707 14.253 14.525 14.403 14.525 11.641C14.51 11.4646 14.5349 11.2871 14.5978 11.1216C14.6607 10.9561 14.76 10.8069 14.8884 10.685C15.0168 10.5632 15.171 10.4717 15.3395 10.4176C15.5081 10.3634 15.6866 10.3478 15.862 10.372C16.388 10.372 17.332 10.464 17.253 12.554Z" fill="white"/>
</svg>
