<svg width="40" height="38" viewBox="0 0 40 38" fill="none" xmlns="http://www.w3.org/2000/svg">
<path fill-rule="evenodd" clip-rule="evenodd" d="M11.8867 15.0547C13.0352 10.4609 15.9064 8.16406 20.5 8.16406C27.3906 8.16406 28.252 13.332 31.6973 14.1934C33.9943 14.7678 36.0039 13.9064 37.7266 11.6094C36.5783 16.2029 33.7068 18.5 29.1133 18.5C22.2227 18.5 21.3613 13.332 17.916 12.4707C15.6189 11.8965 13.6094 12.7578 11.8867 15.0547ZM3.27344 25.3906C4.42188 20.7971 7.29297 18.5 11.8867 18.5C18.7773 18.5 19.6387 23.668 23.084 24.5293C25.3811 25.1037 27.3906 24.2424 29.1133 21.9453C27.965 26.5389 25.0936 28.8359 20.5 28.8359C13.6094 28.8359 12.748 23.668 9.30273 22.8066C7.00586 22.2322 4.99609 23.0936 3.27344 25.3906Z" fill="url(#paint0_linear_154_493)"/>
<defs>
<linearGradient id="paint0_linear_154_493" x1="12.5566" y1="8.16406" x2="27.2949" y2="29.5059" gradientUnits="userSpaceOnUse">
<stop stop-color="#32B1C1"/>
<stop offset="1" stop-color="#14C6B7"/>
</linearGradient>
</defs>
</svg>
