<svg width="26" height="26" viewBox="0 0 26 26" fill="none" xmlns="http://www.w3.org/2000/svg">
<g clip-path="url(#clip0_154_449)">
<path d="M2.03125 0H23.9688C25.0906 0 26 0.909391 26 2.03125V23.9688C26 25.0906 25.0906 26 23.9688 26H2.03125C0.909391 26 0 25.0906 0 23.9688V2.03125C0 0.909391 0.909391 0 2.03125 0Z" fill="#3178C6"/>
<path d="M15.287 20.3607V23.1659C15.7432 23.3997 16.2828 23.575 16.9057 23.6919C17.5286 23.8088 18.1851 23.8672 18.8753 23.8672C19.5478 23.8672 20.1869 23.8029 20.7922 23.6743C21.3975 23.5457 21.9284 23.3339 22.3845 23.0388C22.8407 22.7437 23.2019 22.358 23.468 21.8816C23.7341 21.4054 23.8672 20.8167 23.8672 20.1154C23.8672 19.6069 23.7911 19.1613 23.6391 18.7785C23.4887 18.3983 23.2651 18.0513 22.9811 17.7573C22.6945 17.4592 22.3509 17.1919 21.9503 16.9551C21.5496 16.7185 21.0978 16.495 20.5947 16.2846C20.2263 16.1326 19.8959 15.9851 19.6034 15.8419C19.311 15.6987 19.0624 15.5527 18.8577 15.4036C18.653 15.2546 18.495 15.0968 18.3839 14.9302C18.2728 14.7636 18.2173 14.5752 18.2173 14.3648C18.2173 14.1719 18.2669 13.9982 18.3664 13.8433C18.4658 13.6884 18.6063 13.5554 18.7875 13.4444C18.9688 13.3333 19.191 13.2472 19.4543 13.1858C19.7174 13.1244 20.0099 13.0937 20.3316 13.0937C20.5656 13.0937 20.8127 13.1113 21.0729 13.1464C21.3332 13.1814 21.5949 13.2354 21.8582 13.3085C22.1206 13.3813 22.3772 13.4736 22.6258 13.5847C22.8669 13.6915 23.0974 13.8206 23.3145 13.9703V11.3493C22.8875 11.1857 22.421 11.0644 21.9152 10.9855C21.4093 10.9066 20.8287 10.8672 20.1737 10.8672C19.5069 10.8672 18.8753 10.9388 18.2787 11.082C17.6821 11.2251 17.1572 11.4486 16.7039 11.7525C16.2506 12.0565 15.8924 12.4436 15.6291 12.9141C15.366 13.3845 15.2344 13.947 15.2344 14.6015C15.2344 15.4372 15.4756 16.1502 15.9582 16.7404C16.4407 17.3306 17.1732 17.8303 18.1558 18.2394C18.5186 18.3871 18.8783 18.542 19.2349 18.7041C19.5684 18.856 19.8564 19.0137 20.0991 19.1773C20.3419 19.341 20.5334 19.5192 20.6738 19.7121C20.8141 19.9049 20.8843 20.1241 20.8843 20.3696C20.8855 20.5462 20.8401 20.7201 20.7527 20.8736C20.665 21.0284 20.5319 21.1629 20.3535 21.2768C20.1752 21.3908 19.9529 21.4799 19.6868 21.5441C19.4207 21.6084 19.1092 21.6406 18.7524 21.6406C18.1441 21.6406 17.5418 21.534 16.9452 21.3206C16.3485 21.1073 15.7958 20.7874 15.287 20.3607ZM10.6115 13.38H14.2188V11.0703H4.16406V13.38H7.75379V23.6641H10.6115V13.38Z" fill="white"/>
</g>
<defs>
<clipPath id="clip0_154_449">
<rect width="26" height="26" fill="white"/>
</clipPath>
</defs>
</svg>
